<svg width="352" height="398" viewBox="0 0 352 398" fill="none" xmlns="http://www.w3.org/2000/svg">
<path d="M25.8515 119.307C55.6674 90.8071 74.1331 86.4932 109.046 85.3071C139.987 86.6985 154.53 90.3889 177.331 98.8071C211.222 88.8847 227.817 85.9123 252.35 85.8071C294.187 89.3071 311.499 101.807 329.292 125.307C356.702 165.307 357.04 195.809 342.276 267.307C331.21 302.965 320.921 321.084 298.034 351.307C264.966 387.264 245.597 394.039 210.512 397.307C197.732 395.387 190.489 393.708 177.331 388.807C165.374 394.15 157.684 395.856 142.707 397.307C106.687 394.372 89.8592 384.983 62.88 361.307C33.3032 324.54 24.6573 303.975 10.9439 267.307C-5.98545 199.451 -4.92448 156.307 25.8515 119.307Z" fill="white"/>
<path d="M80.2275 19.5196C78.8427 26.1449 78.3438 31.5332 79.0236 37.3985C79.9117 45.0617 86.5441 50.4723 94.1264 51.8942L114.471 55.7093C116.031 56.0019 117.552 56.4704 119.007 57.1058L161.741 75.7749C162.143 75.9506 162.557 76.0967 162.981 76.2121L169.878 78.0928C174.27 79.29 178.13 74.9356 176.414 70.7196C158.418 38.4521 136.553 8.18055 123.194 4.8977C111.684 2.06952 97.5952 2.68489 86.6599 9.56431C83.1806 11.7531 81.0685 15.496 80.2275 19.5196Z" fill="white" stroke="#4D6BFF"/>
</svg>
